<svg width="41" height="41" viewBox="0 0 41 41" fill="none" xmlns="http://www.w3.org/2000/svg">
<path d="M27.658 3.41669H13.3422C7.12383 3.41669 3.41675 7.12377 3.41675 13.3421V27.6409C3.41675 33.8763 7.12383 37.5834 13.3422 37.5834H27.6409C33.8592 37.5834 37.5663 33.8763 37.5663 27.6579V13.3421C37.5834 7.12377 33.8763 3.41669 27.658 3.41669ZM30.7501 21.7813H13.3422L18.4842 26.9234C18.9797 27.4188 18.9797 28.2388 18.4842 28.7342C18.228 28.9904 17.9034 29.11 17.5788 29.11C17.2542 29.11 16.9297 28.9904 16.6734 28.7342L9.34466 21.4054C9.1055 21.1663 8.96883 20.8417 8.96883 20.5C8.96883 20.1584 9.1055 19.8338 9.34466 19.5946L16.6734 12.2659C17.1688 11.7704 17.9888 11.7704 18.4842 12.2659C18.9797 12.7613 18.9797 13.5813 18.4842 14.0767L13.3422 19.2188H30.7501C31.4505 19.2188 32.0313 19.7996 32.0313 20.5C32.0313 21.2004 31.4505 21.7813 30.7501 21.7813Z" fill="#EB1D36"/>
</svg>
